<svg width="24" height="25" viewBox="0 0 24 25" fill="none" xmlns="http://www.w3.org/2000/svg">
<g clip-path="url(#clip0_41_208)">
<path d="M22.3832 6.156C21.6197 6.4937 20.8101 6.71548 19.9812 6.814C20.8549 6.29144 21.5089 5.46902 21.8212 4.5C21.0012 4.988 20.1022 5.33 19.1652 5.515C18.5358 4.84158 17.7015 4.39497 16.7921 4.24459C15.8827 4.09421 14.9491 4.24849 14.1364 4.68346C13.3238 5.11842 12.6776 5.80969 12.2983 6.6498C11.919 7.4899 11.8279 8.43178 12.0392 9.329C10.3763 9.24566 8.74952 8.81353 7.26447 8.06067C5.77943 7.30781 4.46931 6.25105 3.41918 4.959C3.04747 5.59745 2.85214 6.32323 2.85318 7.062C2.85318 8.512 3.59118 9.793 4.71318 10.543C4.04919 10.5221 3.39982 10.3428 2.81918 10.02V10.072C2.81938 11.0377 3.15355 11.9736 3.76503 12.7211C4.37651 13.4685 5.22766 13.9815 6.17418 14.173C5.5578 14.34 4.91149 14.3647 4.28418 14.245C4.55105 15.0762 5.07119 15.8032 5.77178 16.3241C6.47236 16.845 7.31831 17.1338 8.19118 17.15C7.32366 17.8313 6.33036 18.335 5.26806 18.6322C4.20577 18.9294 3.09531 19.0143 2.00018 18.882C3.91188 20.1114 6.13728 20.7641 8.41018 20.762C16.1032 20.762 20.3102 14.389 20.3102 8.862C20.3102 8.682 20.3052 8.5 20.2972 8.322C21.116 7.73017 21.8228 6.99702 22.3842 6.157L22.3832 6.156Z" fill="#607B96"/>
</g>
<defs>
<clipPath id="clip0_41_208">
<rect width="24" height="24" fill="white" transform="translate(0 0.5)"/>
</clipPath>
</defs>
</svg>
